<svg aria-hidden="true" style="width:0;height:0;position:absolute;overflow:hidden" xmlns="http://www.w3.org/2000/svg"><defs><symbol id="icon-star-empty" viewBox="0 0 32 32"><path d="m32 12.408-11.056-1.607L16 .783l-4.944 10.018L0 12.408l8 7.798-1.889 11.011L16 26.018l9.889 5.199L24 20.206l8-7.798zM16 23.547l-6.983 3.671 1.334-7.776-5.65-5.507 7.808-1.134 3.492-7.075 3.492 7.075 7.807 1.134-5.65 5.507 1.334 7.776-6.983-3.671z"/></symbol><symbol id="icon-star-full" viewBox="0 0 32 32"><path d="m32 12.408-11.056-1.607L16 .783l-4.944 10.018L0 12.408l8 7.798-1.889 11.011L16 26.018l9.889 5.199L24 20.206l8-7.798z"/></symbol><symbol id="icon-check" viewBox="0 0 26 20" fill="#000"><path stroke-width=".4" d="m3.914 9.504-.138-.132-.138.13L1.71 11.33l.152.146 7.13 6.8.138-.132L24.29 3.682l-.152-.144-1.902-1.814-.138.132L8.992 14.348 3.914 9.504z"/></symbol></defs></svg>